<mxfile host="app.diagrams.net" modified="2024-05-17T03:29:03.807Z" agent="Mozilla/5.0 (Windows NT 10.0; Win64; x64; rv:127.0) Gecko/20100101 Firefox/127.0" etag="dyDc_0fjYoVBEpu5sEq2" version="24.4.0" type="github">
  <diagram name="Page-1" id="Lw_mYggWUpvynAE3jcXI">
    <mxGraphModel dx="2206" dy="1148" grid="1" gridSize="10" guides="1" tooltips="1" connect="1" arrows="1" fold="1" page="1" pageScale="1" pageWidth="850" pageHeight="1100" math="0" shadow="0">
      <root>
        <mxCell id="0" />
        <mxCell id="1" parent="0" />
        <mxCell id="-PZHicZPpiV8ePJ1w-Mg-3" value="" style="edgeStyle=orthogonalEdgeStyle;rounded=0;orthogonalLoop=1;jettySize=auto;html=1;dashed=1;dashPattern=1 1;endArrow=oval;endFill=1;strokeWidth=2;" edge="1" parent="1" source="-PZHicZPpiV8ePJ1w-Mg-1" target="-PZHicZPpiV8ePJ1w-Mg-2">
          <mxGeometry relative="1" as="geometry" />
        </mxCell>
        <mxCell id="-PZHicZPpiV8ePJ1w-Mg-1" value="&lt;div&gt;Submission &amp;amp;&amp;nbsp;&lt;/div&gt;&lt;div&gt;Peer Review&lt;/div&gt;" style="rounded=1;whiteSpace=wrap;html=1;fillColor=#a0522d;fontColor=#ffffff;strokeColor=#6D1F00;" vertex="1" parent="1">
          <mxGeometry x="2010" y="350" width="150" height="70" as="geometry" />
        </mxCell>
        <mxCell id="-PZHicZPpiV8ePJ1w-Mg-70" value="" style="edgeStyle=orthogonalEdgeStyle;rounded=0;orthogonalLoop=1;jettySize=auto;html=1;dashed=1;dashPattern=1 1;endArrow=none;endFill=0;strokeWidth=2;" edge="1" parent="1" source="-PZHicZPpiV8ePJ1w-Mg-2" target="-PZHicZPpiV8ePJ1w-Mg-49">
          <mxGeometry relative="1" as="geometry" />
        </mxCell>
        <mxCell id="-PZHicZPpiV8ePJ1w-Mg-2" value="Final Paper" style="shape=step;perimeter=stepPerimeter;whiteSpace=wrap;html=1;fixedSize=1;rounded=1;fillColor=#cdeb8b;strokeColor=#36393d;" vertex="1" parent="1">
          <mxGeometry x="2030" y="490" width="110" height="60" as="geometry" />
        </mxCell>
        <mxCell id="-PZHicZPpiV8ePJ1w-Mg-4" value="" style="edgeStyle=orthogonalEdgeStyle;rounded=0;orthogonalLoop=1;jettySize=auto;html=1;dashed=1;endArrow=oval;endFill=1;dashPattern=1 1;strokeWidth=2;" edge="1" parent="1" source="-PZHicZPpiV8ePJ1w-Mg-5" target="-PZHicZPpiV8ePJ1w-Mg-6">
          <mxGeometry relative="1" as="geometry" />
        </mxCell>
        <mxCell id="-PZHicZPpiV8ePJ1w-Mg-32" value="" style="edgeStyle=orthogonalEdgeStyle;rounded=0;orthogonalLoop=1;jettySize=auto;html=1;" edge="1" parent="1" source="-PZHicZPpiV8ePJ1w-Mg-5" target="-PZHicZPpiV8ePJ1w-Mg-8">
          <mxGeometry relative="1" as="geometry" />
        </mxCell>
        <mxCell id="-PZHicZPpiV8ePJ1w-Mg-5" value="Project Definition &amp;amp; Requirements" style="rounded=1;whiteSpace=wrap;html=1;fillColor=#e51400;fontColor=#ffffff;strokeColor=#B20000;" vertex="1" parent="1">
          <mxGeometry x="400" y="350" width="150" height="70" as="geometry" />
        </mxCell>
        <mxCell id="-PZHicZPpiV8ePJ1w-Mg-25" style="edgeStyle=orthogonalEdgeStyle;rounded=0;orthogonalLoop=1;jettySize=auto;html=1;entryX=0;entryY=0.5;entryDx=0;entryDy=0;dashed=1;endArrow=open;endFill=0;" edge="1" parent="1" source="-PZHicZPpiV8ePJ1w-Mg-6" target="-PZHicZPpiV8ePJ1w-Mg-9">
          <mxGeometry relative="1" as="geometry" />
        </mxCell>
        <mxCell id="-PZHicZPpiV8ePJ1w-Mg-6" value="Plain text" style="shape=step;perimeter=stepPerimeter;whiteSpace=wrap;html=1;fixedSize=1;rounded=1;fillColor=#cdeb8b;strokeColor=#36393d;" vertex="1" parent="1">
          <mxGeometry x="420" y="490" width="110" height="60" as="geometry" />
        </mxCell>
        <mxCell id="-PZHicZPpiV8ePJ1w-Mg-7" value="" style="edgeStyle=orthogonalEdgeStyle;rounded=0;orthogonalLoop=1;jettySize=auto;html=1;dashed=1;endArrow=oval;endFill=1;dashPattern=1 1;strokeWidth=2;" edge="1" parent="1" source="-PZHicZPpiV8ePJ1w-Mg-8" target="-PZHicZPpiV8ePJ1w-Mg-9">
          <mxGeometry relative="1" as="geometry" />
        </mxCell>
        <mxCell id="-PZHicZPpiV8ePJ1w-Mg-33" value="" style="edgeStyle=orthogonalEdgeStyle;rounded=0;orthogonalLoop=1;jettySize=auto;html=1;" edge="1" parent="1" source="-PZHicZPpiV8ePJ1w-Mg-8" target="-PZHicZPpiV8ePJ1w-Mg-11">
          <mxGeometry relative="1" as="geometry" />
        </mxCell>
        <mxCell id="-PZHicZPpiV8ePJ1w-Mg-8" value="Background Research" style="rounded=1;whiteSpace=wrap;html=1;fillColor=#fa6800;fontColor=#000000;strokeColor=#C73500;" vertex="1" parent="1">
          <mxGeometry x="630" y="350" width="150" height="70" as="geometry" />
        </mxCell>
        <mxCell id="-PZHicZPpiV8ePJ1w-Mg-26" style="edgeStyle=orthogonalEdgeStyle;rounded=0;orthogonalLoop=1;jettySize=auto;html=1;entryX=0;entryY=0.5;entryDx=0;entryDy=0;dashed=1;endArrow=open;endFill=0;" edge="1" parent="1" source="-PZHicZPpiV8ePJ1w-Mg-9" target="-PZHicZPpiV8ePJ1w-Mg-12">
          <mxGeometry relative="1" as="geometry" />
        </mxCell>
        <mxCell id="-PZHicZPpiV8ePJ1w-Mg-9" value="&lt;div&gt;Appropedia Literature&amp;nbsp;&lt;/div&gt;&lt;div&gt;Review &lt;/div&gt;" style="shape=step;perimeter=stepPerimeter;whiteSpace=wrap;html=1;fixedSize=1;rounded=1;fillColor=#cdeb8b;strokeColor=#36393d;" vertex="1" parent="1">
          <mxGeometry x="650" y="490" width="110" height="60" as="geometry" />
        </mxCell>
        <mxCell id="-PZHicZPpiV8ePJ1w-Mg-10" value="" style="edgeStyle=orthogonalEdgeStyle;rounded=0;orthogonalLoop=1;jettySize=auto;html=1;dashed=1;dashPattern=1 1;endArrow=oval;endFill=1;strokeWidth=2;" edge="1" parent="1" source="-PZHicZPpiV8ePJ1w-Mg-11" target="-PZHicZPpiV8ePJ1w-Mg-12">
          <mxGeometry relative="1" as="geometry" />
        </mxCell>
        <mxCell id="-PZHicZPpiV8ePJ1w-Mg-34" value="" style="edgeStyle=orthogonalEdgeStyle;rounded=0;orthogonalLoop=1;jettySize=auto;html=1;" edge="1" parent="1" source="-PZHicZPpiV8ePJ1w-Mg-11" target="-PZHicZPpiV8ePJ1w-Mg-14">
          <mxGeometry relative="1" as="geometry" />
        </mxCell>
        <mxCell id="-PZHicZPpiV8ePJ1w-Mg-11" value="Conceptual Design [Proposal]" style="rounded=1;whiteSpace=wrap;html=1;fillColor=#f0a30a;fontColor=#000000;strokeColor=#BD7000;" vertex="1" parent="1">
          <mxGeometry x="855" y="350" width="150" height="70" as="geometry" />
        </mxCell>
        <mxCell id="-PZHicZPpiV8ePJ1w-Mg-27" style="edgeStyle=orthogonalEdgeStyle;rounded=0;orthogonalLoop=1;jettySize=auto;html=1;entryX=0;entryY=0.5;entryDx=0;entryDy=0;" edge="1" parent="1" source="-PZHicZPpiV8ePJ1w-Mg-12" target="-PZHicZPpiV8ePJ1w-Mg-15">
          <mxGeometry relative="1" as="geometry" />
        </mxCell>
        <mxCell id="-PZHicZPpiV8ePJ1w-Mg-65" value="" style="edgeStyle=orthogonalEdgeStyle;rounded=0;orthogonalLoop=1;jettySize=auto;html=1;dashed=1;dashPattern=1 1;endArrow=none;endFill=0;strokeWidth=2;" edge="1" parent="1" source="-PZHicZPpiV8ePJ1w-Mg-12" target="-PZHicZPpiV8ePJ1w-Mg-39">
          <mxGeometry relative="1" as="geometry" />
        </mxCell>
        <mxCell id="-PZHicZPpiV8ePJ1w-Mg-12" value="&lt;div&gt;Paper&amp;nbsp;&lt;/div&gt;&lt;div&gt;Outline&lt;/div&gt;" style="shape=step;perimeter=stepPerimeter;whiteSpace=wrap;html=1;fixedSize=1;rounded=1;fillColor=#cdeb8b;strokeColor=#36393d;" vertex="1" parent="1">
          <mxGeometry x="875" y="490" width="110" height="60" as="geometry" />
        </mxCell>
        <mxCell id="-PZHicZPpiV8ePJ1w-Mg-13" value="" style="edgeStyle=orthogonalEdgeStyle;rounded=0;orthogonalLoop=1;jettySize=auto;html=1;dashed=1;dashPattern=1 1;endArrow=oval;endFill=1;strokeWidth=2;" edge="1" parent="1" source="-PZHicZPpiV8ePJ1w-Mg-14" target="-PZHicZPpiV8ePJ1w-Mg-15">
          <mxGeometry relative="1" as="geometry" />
        </mxCell>
        <mxCell id="-PZHicZPpiV8ePJ1w-Mg-35" value="" style="edgeStyle=orthogonalEdgeStyle;rounded=0;orthogonalLoop=1;jettySize=auto;html=1;" edge="1" parent="1" source="-PZHicZPpiV8ePJ1w-Mg-14" target="-PZHicZPpiV8ePJ1w-Mg-17">
          <mxGeometry relative="1" as="geometry" />
        </mxCell>
        <mxCell id="-PZHicZPpiV8ePJ1w-Mg-14" value="Detailed Design" style="rounded=1;whiteSpace=wrap;html=1;fillColor=#e3c800;fontColor=#000000;strokeColor=#B09500;" vertex="1" parent="1">
          <mxGeometry x="1080" y="350" width="150" height="70" as="geometry" />
        </mxCell>
        <mxCell id="-PZHicZPpiV8ePJ1w-Mg-28" style="edgeStyle=orthogonalEdgeStyle;rounded=0;orthogonalLoop=1;jettySize=auto;html=1;entryX=0;entryY=0.5;entryDx=0;entryDy=0;" edge="1" parent="1" source="-PZHicZPpiV8ePJ1w-Mg-15" target="-PZHicZPpiV8ePJ1w-Mg-18">
          <mxGeometry relative="1" as="geometry" />
        </mxCell>
        <mxCell id="-PZHicZPpiV8ePJ1w-Mg-66" value="" style="edgeStyle=orthogonalEdgeStyle;rounded=0;orthogonalLoop=1;jettySize=auto;html=1;dashed=1;dashPattern=1 1;endArrow=none;endFill=0;strokeWidth=2;" edge="1" parent="1" source="-PZHicZPpiV8ePJ1w-Mg-15" target="-PZHicZPpiV8ePJ1w-Mg-41">
          <mxGeometry relative="1" as="geometry" />
        </mxCell>
        <mxCell id="-PZHicZPpiV8ePJ1w-Mg-15" value="Methods &amp;amp; Materials" style="shape=step;perimeter=stepPerimeter;whiteSpace=wrap;html=1;fixedSize=1;rounded=1;fillColor=#cdeb8b;strokeColor=#36393d;" vertex="1" parent="1">
          <mxGeometry x="1100" y="490" width="110" height="60" as="geometry" />
        </mxCell>
        <mxCell id="-PZHicZPpiV8ePJ1w-Mg-16" value="" style="edgeStyle=orthogonalEdgeStyle;rounded=0;orthogonalLoop=1;jettySize=auto;html=1;dashed=1;dashPattern=1 1;endArrow=oval;endFill=1;strokeWidth=2;" edge="1" parent="1" source="-PZHicZPpiV8ePJ1w-Mg-17" target="-PZHicZPpiV8ePJ1w-Mg-18">
          <mxGeometry relative="1" as="geometry" />
        </mxCell>
        <mxCell id="-PZHicZPpiV8ePJ1w-Mg-36" value="" style="edgeStyle=orthogonalEdgeStyle;rounded=0;orthogonalLoop=1;jettySize=auto;html=1;" edge="1" parent="1" source="-PZHicZPpiV8ePJ1w-Mg-17" target="-PZHicZPpiV8ePJ1w-Mg-20">
          <mxGeometry relative="1" as="geometry" />
        </mxCell>
        <mxCell id="-PZHicZPpiV8ePJ1w-Mg-17" value="Experimentation / Testing (Verification)" style="rounded=1;whiteSpace=wrap;html=1;fillColor=#6d8764;fontColor=#ffffff;strokeColor=#3A5431;" vertex="1" parent="1">
          <mxGeometry x="1320" y="350" width="150" height="70" as="geometry" />
        </mxCell>
        <mxCell id="-PZHicZPpiV8ePJ1w-Mg-29" style="edgeStyle=orthogonalEdgeStyle;rounded=0;orthogonalLoop=1;jettySize=auto;html=1;entryX=0;entryY=0.5;entryDx=0;entryDy=0;" edge="1" parent="1" source="-PZHicZPpiV8ePJ1w-Mg-18" target="-PZHicZPpiV8ePJ1w-Mg-21">
          <mxGeometry relative="1" as="geometry" />
        </mxCell>
        <mxCell id="-PZHicZPpiV8ePJ1w-Mg-67" value="" style="edgeStyle=orthogonalEdgeStyle;rounded=0;orthogonalLoop=1;jettySize=auto;html=1;dashed=1;dashPattern=1 1;endArrow=none;endFill=0;strokeWidth=2;" edge="1" parent="1" source="-PZHicZPpiV8ePJ1w-Mg-18" target="-PZHicZPpiV8ePJ1w-Mg-43">
          <mxGeometry relative="1" as="geometry" />
        </mxCell>
        <mxCell id="-PZHicZPpiV8ePJ1w-Mg-18" value="Results" style="shape=step;perimeter=stepPerimeter;whiteSpace=wrap;html=1;fixedSize=1;rounded=1;fillColor=#cdeb8b;strokeColor=#36393d;" vertex="1" parent="1">
          <mxGeometry x="1340" y="490" width="110" height="60" as="geometry" />
        </mxCell>
        <mxCell id="-PZHicZPpiV8ePJ1w-Mg-19" value="" style="edgeStyle=orthogonalEdgeStyle;rounded=0;orthogonalLoop=1;jettySize=auto;html=1;dashed=1;dashPattern=1 1;endArrow=oval;endFill=1;strokeWidth=2;" edge="1" parent="1" source="-PZHicZPpiV8ePJ1w-Mg-20" target="-PZHicZPpiV8ePJ1w-Mg-21">
          <mxGeometry relative="1" as="geometry" />
        </mxCell>
        <mxCell id="-PZHicZPpiV8ePJ1w-Mg-37" value="" style="edgeStyle=orthogonalEdgeStyle;rounded=0;orthogonalLoop=1;jettySize=auto;html=1;" edge="1" parent="1" source="-PZHicZPpiV8ePJ1w-Mg-20" target="-PZHicZPpiV8ePJ1w-Mg-23">
          <mxGeometry relative="1" as="geometry" />
        </mxCell>
        <mxCell id="-PZHicZPpiV8ePJ1w-Mg-20" value="Analysis/ Interpretation" style="rounded=1;whiteSpace=wrap;html=1;fillColor=#647687;fontColor=#ffffff;strokeColor=#314354;" vertex="1" parent="1">
          <mxGeometry x="1550" y="350" width="150" height="70" as="geometry" />
        </mxCell>
        <mxCell id="-PZHicZPpiV8ePJ1w-Mg-68" value="" style="edgeStyle=orthogonalEdgeStyle;rounded=0;orthogonalLoop=1;jettySize=auto;html=1;dashed=1;dashPattern=1 1;endArrow=none;endFill=0;strokeWidth=2;" edge="1" parent="1" source="-PZHicZPpiV8ePJ1w-Mg-21" target="-PZHicZPpiV8ePJ1w-Mg-45">
          <mxGeometry relative="1" as="geometry" />
        </mxCell>
        <mxCell id="-PZHicZPpiV8ePJ1w-Mg-90" style="edgeStyle=orthogonalEdgeStyle;rounded=0;orthogonalLoop=1;jettySize=auto;html=1;entryX=0;entryY=0.5;entryDx=0;entryDy=0;" edge="1" parent="1" source="-PZHicZPpiV8ePJ1w-Mg-21" target="-PZHicZPpiV8ePJ1w-Mg-24">
          <mxGeometry relative="1" as="geometry" />
        </mxCell>
        <mxCell id="-PZHicZPpiV8ePJ1w-Mg-21" value="Discussion &amp;amp; Conclusion" style="shape=step;perimeter=stepPerimeter;whiteSpace=wrap;html=1;fixedSize=1;rounded=1;fillColor=#cdeb8b;strokeColor=#36393d;" vertex="1" parent="1">
          <mxGeometry x="1570" y="490" width="110" height="60" as="geometry" />
        </mxCell>
        <mxCell id="-PZHicZPpiV8ePJ1w-Mg-22" value="" style="edgeStyle=orthogonalEdgeStyle;rounded=0;orthogonalLoop=1;jettySize=auto;html=1;dashed=1;dashPattern=1 1;endArrow=oval;endFill=1;strokeWidth=2;" edge="1" parent="1" source="-PZHicZPpiV8ePJ1w-Mg-23" target="-PZHicZPpiV8ePJ1w-Mg-24">
          <mxGeometry relative="1" as="geometry" />
        </mxCell>
        <mxCell id="-PZHicZPpiV8ePJ1w-Mg-38" value="" style="edgeStyle=orthogonalEdgeStyle;rounded=0;orthogonalLoop=1;jettySize=auto;html=1;" edge="1" parent="1" source="-PZHicZPpiV8ePJ1w-Mg-23" target="-PZHicZPpiV8ePJ1w-Mg-1">
          <mxGeometry relative="1" as="geometry" />
        </mxCell>
        <mxCell id="-PZHicZPpiV8ePJ1w-Mg-23" value="Revision &amp;amp; Editing" style="rounded=1;whiteSpace=wrap;html=1;fillColor=#76608a;fontColor=#ffffff;strokeColor=#432D57;" vertex="1" parent="1">
          <mxGeometry x="1775" y="350" width="150" height="70" as="geometry" />
        </mxCell>
        <mxCell id="-PZHicZPpiV8ePJ1w-Mg-69" value="" style="edgeStyle=orthogonalEdgeStyle;rounded=0;orthogonalLoop=1;jettySize=auto;html=1;dashed=1;dashPattern=1 1;endArrow=none;endFill=0;strokeWidth=2;" edge="1" parent="1" source="-PZHicZPpiV8ePJ1w-Mg-24" target="-PZHicZPpiV8ePJ1w-Mg-47">
          <mxGeometry relative="1" as="geometry" />
        </mxCell>
        <mxCell id="-PZHicZPpiV8ePJ1w-Mg-89" style="edgeStyle=orthogonalEdgeStyle;rounded=0;orthogonalLoop=1;jettySize=auto;html=1;" edge="1" parent="1" source="-PZHicZPpiV8ePJ1w-Mg-24" target="-PZHicZPpiV8ePJ1w-Mg-2">
          <mxGeometry relative="1" as="geometry" />
        </mxCell>
        <mxCell id="-PZHicZPpiV8ePJ1w-Mg-24" value="&lt;div&gt;Paper Draft&lt;/div&gt;" style="shape=step;perimeter=stepPerimeter;whiteSpace=wrap;html=1;fixedSize=1;rounded=1;fillColor=#cdeb8b;strokeColor=#36393d;" vertex="1" parent="1">
          <mxGeometry x="1795" y="490" width="110" height="60" as="geometry" />
        </mxCell>
        <mxCell id="-PZHicZPpiV8ePJ1w-Mg-63" style="edgeStyle=orthogonalEdgeStyle;rounded=0;orthogonalLoop=1;jettySize=auto;html=1;entryX=0;entryY=0.5;entryDx=0;entryDy=0;" edge="1" parent="1" source="-PZHicZPpiV8ePJ1w-Mg-39" target="-PZHicZPpiV8ePJ1w-Mg-41">
          <mxGeometry relative="1" as="geometry" />
        </mxCell>
        <mxCell id="-PZHicZPpiV8ePJ1w-Mg-75" value="" style="edgeStyle=orthogonalEdgeStyle;rounded=0;orthogonalLoop=1;jettySize=auto;html=1;dashed=1;dashPattern=1 1;endArrow=none;endFill=0;strokeWidth=2;" edge="1" parent="1" source="-PZHicZPpiV8ePJ1w-Mg-39" target="-PZHicZPpiV8ePJ1w-Mg-40">
          <mxGeometry relative="1" as="geometry" />
        </mxCell>
        <mxCell id="-PZHicZPpiV8ePJ1w-Mg-39" value="&lt;div&gt;git&lt;/div&gt;&lt;div&gt;Repository&lt;/div&gt;" style="ellipse;whiteSpace=wrap;html=1;fillColor=#ffcc99;strokeColor=#36393d;" vertex="1" parent="1">
          <mxGeometry x="880" y="610" width="100" height="70" as="geometry" />
        </mxCell>
        <mxCell id="-PZHicZPpiV8ePJ1w-Mg-64" style="edgeStyle=orthogonalEdgeStyle;rounded=0;orthogonalLoop=1;jettySize=auto;html=1;entryX=0;entryY=0.5;entryDx=0;entryDy=0;fillColor=#647687;strokeColor=#314354;" edge="1" parent="1" source="-PZHicZPpiV8ePJ1w-Mg-40" target="-PZHicZPpiV8ePJ1w-Mg-42">
          <mxGeometry relative="1" as="geometry" />
        </mxCell>
        <mxCell id="-PZHicZPpiV8ePJ1w-Mg-40" value="&lt;div&gt;figshare&lt;br&gt;&lt;/div&gt;&lt;div&gt;Repository&lt;/div&gt;" style="ellipse;whiteSpace=wrap;html=1;fillColor=#ffcccc;strokeColor=#36393d;" vertex="1" parent="1">
          <mxGeometry x="880" y="720" width="100" height="70" as="geometry" />
        </mxCell>
        <mxCell id="-PZHicZPpiV8ePJ1w-Mg-61" style="edgeStyle=orthogonalEdgeStyle;rounded=0;orthogonalLoop=1;jettySize=auto;html=1;entryX=0;entryY=0.5;entryDx=0;entryDy=0;" edge="1" parent="1" source="-PZHicZPpiV8ePJ1w-Mg-41" target="-PZHicZPpiV8ePJ1w-Mg-43">
          <mxGeometry relative="1" as="geometry" />
        </mxCell>
        <mxCell id="-PZHicZPpiV8ePJ1w-Mg-76" value="" style="edgeStyle=orthogonalEdgeStyle;rounded=0;orthogonalLoop=1;jettySize=auto;html=1;dashed=1;dashPattern=1 1;endArrow=none;endFill=0;strokeWidth=2;" edge="1" parent="1" source="-PZHicZPpiV8ePJ1w-Mg-41" target="-PZHicZPpiV8ePJ1w-Mg-42">
          <mxGeometry relative="1" as="geometry" />
        </mxCell>
        <mxCell id="-PZHicZPpiV8ePJ1w-Mg-41" value="&lt;div&gt;git&lt;/div&gt;&lt;div&gt;Repository&lt;/div&gt;" style="ellipse;whiteSpace=wrap;html=1;fillColor=#ffcc99;strokeColor=#36393d;" vertex="1" parent="1">
          <mxGeometry x="1105" y="610" width="100" height="70" as="geometry" />
        </mxCell>
        <mxCell id="-PZHicZPpiV8ePJ1w-Mg-62" style="edgeStyle=orthogonalEdgeStyle;rounded=0;orthogonalLoop=1;jettySize=auto;html=1;entryX=0;entryY=0.5;entryDx=0;entryDy=0;fillColor=#647687;strokeColor=#314354;" edge="1" parent="1" source="-PZHicZPpiV8ePJ1w-Mg-42" target="-PZHicZPpiV8ePJ1w-Mg-44">
          <mxGeometry relative="1" as="geometry" />
        </mxCell>
        <mxCell id="-PZHicZPpiV8ePJ1w-Mg-42" value="&lt;div&gt;figshare&lt;br&gt;&lt;/div&gt;&lt;div&gt;Repository&lt;/div&gt;" style="ellipse;whiteSpace=wrap;html=1;fillColor=#ffcccc;strokeColor=#36393d;" vertex="1" parent="1">
          <mxGeometry x="1105" y="720" width="100" height="70" as="geometry" />
        </mxCell>
        <mxCell id="-PZHicZPpiV8ePJ1w-Mg-59" style="edgeStyle=orthogonalEdgeStyle;rounded=0;orthogonalLoop=1;jettySize=auto;html=1;entryX=0;entryY=0.5;entryDx=0;entryDy=0;" edge="1" parent="1" source="-PZHicZPpiV8ePJ1w-Mg-43" target="-PZHicZPpiV8ePJ1w-Mg-45">
          <mxGeometry relative="1" as="geometry" />
        </mxCell>
        <mxCell id="-PZHicZPpiV8ePJ1w-Mg-77" value="" style="edgeStyle=orthogonalEdgeStyle;rounded=0;orthogonalLoop=1;jettySize=auto;html=1;dashed=1;dashPattern=1 1;endArrow=none;endFill=0;strokeWidth=2;" edge="1" parent="1" source="-PZHicZPpiV8ePJ1w-Mg-43" target="-PZHicZPpiV8ePJ1w-Mg-44">
          <mxGeometry relative="1" as="geometry" />
        </mxCell>
        <mxCell id="-PZHicZPpiV8ePJ1w-Mg-43" value="&lt;div&gt;git&lt;/div&gt;&lt;div&gt;Repository&lt;/div&gt;" style="ellipse;whiteSpace=wrap;html=1;fillColor=#ffcc99;strokeColor=#36393d;" vertex="1" parent="1">
          <mxGeometry x="1345" y="610" width="100" height="70" as="geometry" />
        </mxCell>
        <mxCell id="-PZHicZPpiV8ePJ1w-Mg-60" style="edgeStyle=orthogonalEdgeStyle;rounded=0;orthogonalLoop=1;jettySize=auto;html=1;entryX=0;entryY=0.5;entryDx=0;entryDy=0;fillColor=#647687;strokeColor=#314354;" edge="1" parent="1" source="-PZHicZPpiV8ePJ1w-Mg-44" target="-PZHicZPpiV8ePJ1w-Mg-46">
          <mxGeometry relative="1" as="geometry" />
        </mxCell>
        <mxCell id="-PZHicZPpiV8ePJ1w-Mg-44" value="&lt;div&gt;figshare&lt;br&gt;&lt;/div&gt;&lt;div&gt;Repository&lt;/div&gt;" style="ellipse;whiteSpace=wrap;html=1;fillColor=#ffcccc;strokeColor=#36393d;" vertex="1" parent="1">
          <mxGeometry x="1345" y="720" width="100" height="70" as="geometry" />
        </mxCell>
        <mxCell id="-PZHicZPpiV8ePJ1w-Mg-51" style="edgeStyle=orthogonalEdgeStyle;rounded=0;orthogonalLoop=1;jettySize=auto;html=1;entryX=0;entryY=0.5;entryDx=0;entryDy=0;" edge="1" parent="1" source="-PZHicZPpiV8ePJ1w-Mg-45" target="-PZHicZPpiV8ePJ1w-Mg-47">
          <mxGeometry relative="1" as="geometry" />
        </mxCell>
        <mxCell id="-PZHicZPpiV8ePJ1w-Mg-54" style="edgeStyle=orthogonalEdgeStyle;rounded=0;orthogonalLoop=1;jettySize=auto;html=1;entryX=0;entryY=0.5;entryDx=0;entryDy=0;" edge="1" parent="1" source="-PZHicZPpiV8ePJ1w-Mg-45" target="-PZHicZPpiV8ePJ1w-Mg-52">
          <mxGeometry relative="1" as="geometry" />
        </mxCell>
        <mxCell id="-PZHicZPpiV8ePJ1w-Mg-78" style="edgeStyle=orthogonalEdgeStyle;rounded=0;orthogonalLoop=1;jettySize=auto;html=1;entryX=0.5;entryY=0;entryDx=0;entryDy=0;strokeWidth=2;endArrow=none;endFill=0;dashed=1;dashPattern=1 1;" edge="1" parent="1" source="-PZHicZPpiV8ePJ1w-Mg-45" target="-PZHicZPpiV8ePJ1w-Mg-46">
          <mxGeometry relative="1" as="geometry" />
        </mxCell>
        <mxCell id="-PZHicZPpiV8ePJ1w-Mg-45" value="&lt;div&gt;git&lt;/div&gt;&lt;div&gt;Repository&lt;/div&gt;" style="ellipse;whiteSpace=wrap;html=1;fillColor=#ffcc99;strokeColor=#36393d;" vertex="1" parent="1">
          <mxGeometry x="1575" y="610" width="100" height="70" as="geometry" />
        </mxCell>
        <mxCell id="-PZHicZPpiV8ePJ1w-Mg-55" style="edgeStyle=orthogonalEdgeStyle;rounded=0;orthogonalLoop=1;jettySize=auto;html=1;entryX=0;entryY=0.5;entryDx=0;entryDy=0;fillColor=#647687;strokeColor=#314354;" edge="1" parent="1" source="-PZHicZPpiV8ePJ1w-Mg-46" target="-PZHicZPpiV8ePJ1w-Mg-48">
          <mxGeometry relative="1" as="geometry" />
        </mxCell>
        <mxCell id="-PZHicZPpiV8ePJ1w-Mg-46" value="&lt;div&gt;figshare&lt;br&gt;&lt;/div&gt;&lt;div&gt;Repository&lt;/div&gt;" style="ellipse;whiteSpace=wrap;html=1;fillColor=#ffcccc;strokeColor=#36393d;" vertex="1" parent="1">
          <mxGeometry x="1575" y="720" width="100" height="70" as="geometry" />
        </mxCell>
        <mxCell id="-PZHicZPpiV8ePJ1w-Mg-56" style="edgeStyle=orthogonalEdgeStyle;rounded=0;orthogonalLoop=1;jettySize=auto;html=1;entryX=0;entryY=0.5;entryDx=0;entryDy=0;" edge="1" parent="1" source="-PZHicZPpiV8ePJ1w-Mg-47" target="-PZHicZPpiV8ePJ1w-Mg-49">
          <mxGeometry relative="1" as="geometry" />
        </mxCell>
        <mxCell id="-PZHicZPpiV8ePJ1w-Mg-71" value="" style="edgeStyle=orthogonalEdgeStyle;rounded=0;orthogonalLoop=1;jettySize=auto;html=1;dashed=1;dashPattern=1 1;endArrow=none;endFill=0;strokeWidth=2;" edge="1" parent="1" source="-PZHicZPpiV8ePJ1w-Mg-47" target="-PZHicZPpiV8ePJ1w-Mg-48">
          <mxGeometry relative="1" as="geometry" />
        </mxCell>
        <mxCell id="-PZHicZPpiV8ePJ1w-Mg-47" value="&lt;div&gt;git&lt;/div&gt;&lt;div&gt;Repository&lt;br&gt;&lt;/div&gt;" style="ellipse;whiteSpace=wrap;html=1;fillColor=#ffcc99;strokeColor=#36393d;" vertex="1" parent="1">
          <mxGeometry x="1800" y="610" width="100" height="70" as="geometry" />
        </mxCell>
        <mxCell id="-PZHicZPpiV8ePJ1w-Mg-57" style="edgeStyle=orthogonalEdgeStyle;rounded=0;orthogonalLoop=1;jettySize=auto;html=1;entryX=0;entryY=0.5;entryDx=0;entryDy=0;fillColor=#647687;strokeColor=#314354;" edge="1" parent="1" source="-PZHicZPpiV8ePJ1w-Mg-48" target="-PZHicZPpiV8ePJ1w-Mg-50">
          <mxGeometry relative="1" as="geometry" />
        </mxCell>
        <mxCell id="-PZHicZPpiV8ePJ1w-Mg-73" value="" style="edgeStyle=orthogonalEdgeStyle;rounded=0;orthogonalLoop=1;jettySize=auto;html=1;dashed=1;dashPattern=1 1;endArrow=none;endFill=0;strokeWidth=2;" edge="1" parent="1" source="-PZHicZPpiV8ePJ1w-Mg-48" target="-PZHicZPpiV8ePJ1w-Mg-52">
          <mxGeometry relative="1" as="geometry" />
        </mxCell>
        <mxCell id="-PZHicZPpiV8ePJ1w-Mg-48" value="&lt;div&gt;figshare&lt;br&gt;&lt;/div&gt;&lt;div&gt;Repository&lt;/div&gt;" style="ellipse;whiteSpace=wrap;html=1;fillColor=#ffcccc;strokeColor=#36393d;" vertex="1" parent="1">
          <mxGeometry x="1800" y="720" width="100" height="70" as="geometry" />
        </mxCell>
        <mxCell id="-PZHicZPpiV8ePJ1w-Mg-72" value="" style="edgeStyle=orthogonalEdgeStyle;rounded=0;orthogonalLoop=1;jettySize=auto;html=1;dashed=1;dashPattern=1 1;endArrow=none;endFill=0;strokeWidth=2;" edge="1" parent="1" source="-PZHicZPpiV8ePJ1w-Mg-49" target="-PZHicZPpiV8ePJ1w-Mg-50">
          <mxGeometry relative="1" as="geometry" />
        </mxCell>
        <mxCell id="-PZHicZPpiV8ePJ1w-Mg-84" value="" style="edgeStyle=orthogonalEdgeStyle;rounded=0;orthogonalLoop=1;jettySize=auto;html=1;" edge="1" parent="1" source="-PZHicZPpiV8ePJ1w-Mg-49" target="-PZHicZPpiV8ePJ1w-Mg-83">
          <mxGeometry relative="1" as="geometry" />
        </mxCell>
        <mxCell id="-PZHicZPpiV8ePJ1w-Mg-49" value="&lt;div&gt;git&lt;/div&gt;&lt;div&gt;Repository&lt;br&gt;&lt;/div&gt;" style="ellipse;whiteSpace=wrap;html=1;fillColor=#ffcc99;strokeColor=#36393d;" vertex="1" parent="1">
          <mxGeometry x="2035" y="610" width="100" height="70" as="geometry" />
        </mxCell>
        <mxCell id="-PZHicZPpiV8ePJ1w-Mg-74" value="" style="edgeStyle=orthogonalEdgeStyle;rounded=0;orthogonalLoop=1;jettySize=auto;html=1;dashed=1;dashPattern=1 1;endArrow=none;endFill=0;strokeWidth=2;" edge="1" parent="1" source="-PZHicZPpiV8ePJ1w-Mg-50" target="-PZHicZPpiV8ePJ1w-Mg-53">
          <mxGeometry relative="1" as="geometry" />
        </mxCell>
        <mxCell id="-PZHicZPpiV8ePJ1w-Mg-86" style="edgeStyle=orthogonalEdgeStyle;rounded=0;orthogonalLoop=1;jettySize=auto;html=1;entryX=0;entryY=0;entryDx=0;entryDy=0;" edge="1" parent="1" source="-PZHicZPpiV8ePJ1w-Mg-50" target="-PZHicZPpiV8ePJ1w-Mg-85">
          <mxGeometry relative="1" as="geometry" />
        </mxCell>
        <mxCell id="-PZHicZPpiV8ePJ1w-Mg-50" value="&lt;div&gt;figshare&lt;br&gt;&lt;/div&gt;&lt;div&gt;Repository&lt;/div&gt;" style="ellipse;whiteSpace=wrap;html=1;fillColor=#ffcccc;strokeColor=#36393d;" vertex="1" parent="1">
          <mxGeometry x="2035" y="720" width="100" height="70" as="geometry" />
        </mxCell>
        <mxCell id="-PZHicZPpiV8ePJ1w-Mg-58" style="edgeStyle=orthogonalEdgeStyle;rounded=0;orthogonalLoop=1;jettySize=auto;html=1;entryX=0;entryY=0.5;entryDx=0;entryDy=0;" edge="1" parent="1" source="-PZHicZPpiV8ePJ1w-Mg-52" target="-PZHicZPpiV8ePJ1w-Mg-53">
          <mxGeometry relative="1" as="geometry" />
        </mxCell>
        <mxCell id="-PZHicZPpiV8ePJ1w-Mg-52" value="&lt;div&gt;OSF&lt;/div&gt;&lt;div&gt;Repository&lt;/div&gt;" style="ellipse;whiteSpace=wrap;html=1;fillColor=#cce5ff;strokeColor=#36393d;" vertex="1" parent="1">
          <mxGeometry x="1800" y="840" width="100" height="70" as="geometry" />
        </mxCell>
        <mxCell id="-PZHicZPpiV8ePJ1w-Mg-87" style="edgeStyle=orthogonalEdgeStyle;rounded=0;orthogonalLoop=1;jettySize=auto;html=1;entryX=0;entryY=1;entryDx=0;entryDy=0;" edge="1" parent="1" source="-PZHicZPpiV8ePJ1w-Mg-53" target="-PZHicZPpiV8ePJ1w-Mg-85">
          <mxGeometry relative="1" as="geometry" />
        </mxCell>
        <mxCell id="-PZHicZPpiV8ePJ1w-Mg-53" value="&lt;div&gt;OSF&lt;/div&gt;&lt;div&gt;Repository&lt;/div&gt;" style="ellipse;whiteSpace=wrap;html=1;fillColor=#cce5ff;strokeColor=#36393d;" vertex="1" parent="1">
          <mxGeometry x="2035" y="840" width="100" height="70" as="geometry" />
        </mxCell>
        <mxCell id="-PZHicZPpiV8ePJ1w-Mg-83" value="Continued Development" style="rhombus;whiteSpace=wrap;html=1;" vertex="1" parent="1">
          <mxGeometry x="2320" y="587.5" width="125" height="115" as="geometry" />
        </mxCell>
        <mxCell id="-PZHicZPpiV8ePJ1w-Mg-85" value="&lt;div&gt;Spread to&amp;nbsp;&lt;/div&gt;&lt;div&gt;Sharing Sites&lt;/div&gt;" style="rhombus;whiteSpace=wrap;html=1;fillColor=#eeeeee;strokeColor=#36393d;" vertex="1" parent="1">
          <mxGeometry x="2220" y="750" width="125" height="115" as="geometry" />
        </mxCell>
      </root>
    </mxGraphModel>
  </diagram>
</mxfile>
